<svg width="71" height="87" viewBox="0 0 71 87" fill="none" xmlns="http://www.w3.org/2000/svg">
<path d="M21.2884 44.0967C19.6189 44.9464 18.5541 46.8421 17.9456 48.583C15.7455 54.8631 21.0101 61.8909 18.3055 65.875C22.0675 71.7926 26.4973 81.0938 27.1058 86.8565C27.525 86.8565 30.6304 86.8565 30.6304 86.8565C29.1463 80.6746 27.7439 75.7464 25.3361 69.1831C28.2114 66.7964 30.7046 63.5299 32.656 59.4929C40.5066 62.7293 44.8325 63.2353 54.2524 61.2527C54.1188 61.9476 50.2195 78.3559 49.7372 87C50.7612 87 51.4466 87 52.1859 87C52.8129 77.3438 56.6416 69.3417 62.1659 61.4415C64.993 58.8509 66.8629 55.2067 67.3823 51.3586C67.9017 47.5105 67.0632 43.4887 65.0561 40.1881C63.5164 37.6542 61.8246 36.2834 60.6893 33.5379C59.9399 31.7253 59.7989 29.3273 60.0623 27.2012C60.0623 29.029 62.5518 31.2381 65.0709 29.8484C66.0949 30.8907 67.386 31.5327 68.5918 31.5327C69.3078 31.5327 70.5804 30.5206 70.9996 29.9315C71.0627 29.8673 63.2493 18.3985 63.2493 18.3985L63.0935 15.2565L61.3905 17.6432C59.81 17.6356 56.8754 19.0216 55.5954 19.9694C54.3154 20.9173 53.284 22.1748 52.4047 23.5117C48.3014 29.7276 48.2903 34.448 49.7372 41.1775C47.6855 37.8317 47.5297 37.8959 46.9806 34.1157C46.4315 30.3356 46.6912 26.4875 47.1847 22.764C46.2683 23.2473 45.504 24.0253 44.9586 24.9996C41.9312 21.6537 37.7537 19.4068 33.2608 18.8177C33.7097 19.2784 34.0436 19.8599 33.8841 20.5359C29.8512 18.6439 26.2821 15.7324 23.5849 12.1373C20.8914 8.54215 19.0735 4.27107 18.209 0C17.7008 0.0604219 17.2741 0.453169 17.0366 0.913886C16.7992 1.3746 16.725 1.90707 16.6768 2.42443C16.4579 4.73557 16.6953 7.08825 17.2036 9.30498C15.8939 8.09277 14.9516 6.47648 14.4804 4.94328C14.0797 5.07923 13.7977 5.46442 13.6753 5.87604C13.5529 6.28767 13.5677 6.72949 13.5974 7.15622C13.7273 9.03686 14.1317 10.9024 14.8143 12.749C13.6085 11.8729 12.5697 10.7664 11.7646 9.59576C11.3602 10.0112 11.2081 10.6305 11.2415 11.212C11.2749 11.7974 11.4753 12.3563 11.6941 12.8963C12.3545 14.5239 13.2227 16.0647 14.076 17.6092C13.1374 17.1938 12.2321 16.6991 11.1784 16.1931C11.542 19.1462 13.2969 21.8878 15.8235 23.523C14.8106 23.5117 13.7978 23.3078 12.8554 22.9226C13.0928 24.2632 13.8794 25.4641 14.8811 26.3666C15.8828 27.2692 17.096 27.8998 18.3723 28.5456C17.634 28.6627 16.8845 28.6891 16.1425 28.6249C16.1017 28.893 16.2019 29.1687 16.3651 29.3802C16.5284 29.5954 16.7435 29.7578 16.9661 29.9089C17.8566 30.5244 18.8435 30.9927 19.9713 31.3514C19.348 31.6007 18.695 31.7819 18.0309 31.8877C19.0698 33.0734 20.717 33.6739 22.4014 33.4926C21.9451 34.1233 21.2624 34.5802 20.513 34.7577C21.7781 36.1059 23.7407 36.7328 25.5142 36.4004C25.3175 36.9669 24.8204 37.4125 24.2453 37.5333C24.1192 37.5598 23.9893 37.5749 23.878 37.6353C23.7667 37.6957 23.674 37.8241 23.6999 37.9487C23.7185 38.0394 23.7927 38.1073 23.8595 38.1678C25.1914 39.312 26.9759 39.9011 28.716 39.7652C28.638 39.9125 28.5564 40.056 28.4785 40.2032C30.9939 41.0642 33.6021 41.6496 36.3587 41.9479C35.8541 42.386 35.331 42.824 34.986 43.2508C36.3067 43.5793 37.8761 43.2055 38.8778 42.8467C40.6401 43.9494 42.4024 44.6745 44.0089 45.8451C42.343 45.2938 40.4732 44.361 38.7146 43.6737C36.9857 44.3119 35.472 44.1307 33.6615 43.7757C33.8321 43.3225 33.8173 43.1979 34.4517 42.5521C34.0955 42.537 30.0145 41.9857 27.9591 42.0688C26.1968 42.1405 24.416 42.5937 22.9579 43.6095C22.65 39.2554 18.7915 36.0606 16.0386 36.5553C0.144685 39.4102 12.4547 68.8243 0 76.7396C20.398 77.6308 8.47751 38.2131 21.2884 44.0967Z" fill="white"/>
</svg>
