<svg width="24" height="29" viewBox="0 0 24 29" fill="none" xmlns="http://www.w3.org/2000/svg">
<path d="M7.19607 14.6989C6.63173 14.9821 6.2718 15.614 6.06612 16.1943C5.32244 18.2877 7.10202 20.6303 6.18777 21.9583C7.45944 23.9309 8.95685 27.0313 9.16252 28.9522C9.30424 28.9522 10.3539 28.9522 10.3539 28.9522C9.85228 26.8915 9.37822 25.2488 8.5643 23.061C9.53624 22.2655 10.379 21.1766 11.0387 19.831C13.6924 20.9098 15.1546 21.0784 18.3388 20.4176C18.2937 20.6492 16.9756 26.1186 16.8126 29C17.1587 29 17.3904 29 17.6403 29C17.8522 25.7813 19.1465 23.1139 21.0138 20.4805C21.9695 19.617 22.6015 18.4022 22.7771 17.1195C22.9527 15.8368 22.6693 14.4962 21.9908 13.396C21.4703 12.5514 20.8985 12.0945 20.5147 11.1793C20.2614 10.5751 20.2137 9.77576 20.3028 9.06706C20.3028 9.67632 21.1443 10.4127 21.9958 9.94948C22.3419 10.2969 22.7784 10.5109 23.186 10.5109C23.428 10.5109 23.8582 10.1735 23.9999 9.97717C24.0212 9.95577 21.38 6.13282 21.38 6.13282L21.3274 5.08551L20.7517 5.88107C20.2175 5.87855 19.2255 6.34052 18.7928 6.65648C18.3601 6.97244 18.0115 7.39161 17.7143 7.83723C16.3272 9.90919 16.3235 11.4827 16.8126 13.7258C16.1191 12.6106 16.0664 12.632 15.8808 11.3719C15.6952 10.1119 15.783 8.82915 15.9497 7.58798C15.64 7.74911 15.3816 8.00842 15.1973 8.33319C14.1739 7.2179 12.7618 6.46892 11.2431 6.27255C11.3948 6.42612 11.5077 6.61998 11.4538 6.8453C10.0906 6.21465 8.8841 5.24412 7.97237 4.04575C7.06189 2.84738 6.44737 1.42369 6.15517 0C5.98335 0.0201406 5.83913 0.151056 5.75886 0.304629C5.6786 0.458201 5.65352 0.635691 5.63722 0.808145C5.56323 1.57852 5.64349 2.36275 5.8153 3.10166C5.3726 2.69759 5.05405 2.15883 4.89478 1.64776C4.75934 1.69308 4.66403 1.82147 4.62264 1.95868C4.58126 2.09589 4.58628 2.24316 4.59631 2.38541C4.6402 3.01229 4.7769 3.63413 5.00765 4.24968C4.60007 3.95764 4.24892 3.58881 3.97678 3.19859C3.84008 3.33705 3.78866 3.54349 3.79995 3.73735C3.81123 3.93246 3.87896 4.11876 3.95295 4.29877C4.17618 4.84131 4.46964 5.35489 4.75809 5.86974C4.4408 5.73127 4.1348 5.56637 3.77863 5.39769C3.90153 6.38206 4.49473 7.29595 5.34878 7.841C5.0064 7.83723 4.66403 7.76925 4.34549 7.64086C4.42575 8.08773 4.69162 8.48802 5.03023 8.78887C5.36884 9.08972 5.77893 9.29994 6.21035 9.5152C5.96078 9.55422 5.70745 9.56303 5.45663 9.54163C5.44283 9.631 5.47669 9.72289 5.53187 9.79339C5.58705 9.86514 5.65979 9.91926 5.73504 9.96962C6.03602 10.1748 6.36962 10.3309 6.75087 10.4505C6.54018 10.5336 6.31945 10.594 6.09496 10.6292C6.44611 11.0245 7.00294 11.2246 7.57231 11.1642C7.41805 11.3744 7.18729 11.5267 6.93396 11.5859C7.36161 12.0353 8.02504 12.2442 8.62451 12.1335C8.55804 12.3223 8.38998 12.4708 8.1956 12.5111C8.15296 12.5199 8.10906 12.525 8.07144 12.5451C8.03382 12.5652 8.00247 12.608 8.01125 12.6496C8.01752 12.6798 8.0426 12.7024 8.06517 12.7226C8.5154 13.104 9.11863 13.3004 9.7068 13.2551C9.68047 13.3042 9.65287 13.352 9.62654 13.4011C10.4768 13.6881 11.3585 13.8832 12.2903 13.9826C12.1197 14.1287 11.9429 14.2747 11.8262 14.4169C12.2727 14.5264 12.8032 14.4018 13.1418 14.2822C13.7375 14.6498 14.3332 14.8915 14.8762 15.2817C14.3131 15.0979 13.6811 14.787 13.0866 14.5579C12.5022 14.7706 11.9905 14.7102 11.3785 14.5919C11.4362 14.4408 11.4312 14.3993 11.6456 14.184C11.5253 14.179 10.1457 13.9952 9.45096 14.0229C8.85526 14.0468 8.25329 14.1979 7.76042 14.5365C7.65633 13.0851 6.35206 12.0202 5.42151 12.1851C0.0489078 13.1367 4.21004 22.9414 0 25.5799C6.89509 25.8769 2.86564 12.7377 7.19607 14.6989Z" fill="white"/>
</svg>
