<svg width="11" height="14" viewBox="0 0 11 14" fill="none" xmlns="http://www.w3.org/2000/svg">
<path d="M3.2982 7.09602C3.03954 7.23275 2.87457 7.53781 2.78031 7.81795C2.43945 8.82855 3.25509 9.95946 2.83606 10.6006C3.41891 11.5528 4.10522 13.0496 4.19949 13.9769C4.26444 13.9769 4.74555 13.9769 4.74555 13.9769C4.51563 12.9821 4.29835 12.1891 3.92531 11.1329C4.37078 10.7489 4.75704 10.2232 5.05939 9.57357C6.27566 10.0944 6.94588 10.1758 8.40529 9.85676C8.3846 9.96857 7.78049 12.609 7.70577 14C7.86441 14 7.9706 14 8.08513 14C8.18227 12.4461 8.77547 11.1584 9.63134 9.88714C10.0693 9.47027 10.359 8.88384 10.4395 8.26461C10.52 7.64537 10.3901 6.99818 10.0791 6.46705C9.84057 6.05929 9.57846 5.8387 9.40257 5.39691C9.28646 5.10522 9.26462 4.71933 9.30543 4.3772C9.30543 4.67133 9.69112 5.02683 10.0814 4.80319C10.2401 4.97092 10.4401 5.07422 10.6269 5.07422C10.7378 5.07422 10.935 4.91136 10.9999 4.81656C11.0097 4.80623 9.79918 2.96067 9.79918 2.96067L9.77504 2.45508L9.51121 2.83914C9.26634 2.83792 8.81168 3.06094 8.61337 3.21347C8.41507 3.366 8.25527 3.56837 8.11905 3.78349C7.48332 4.78375 7.48159 5.54336 7.70576 6.62627C7.3879 6.08786 7.36376 6.09819 7.27869 5.48989C7.19362 4.88159 7.23385 4.26235 7.3103 3.66316C7.16833 3.74095 7.04992 3.86613 6.96542 4.02292C6.49638 3.4845 5.84916 3.12293 5.15308 3.02813C5.22263 3.10227 5.27436 3.19585 5.24965 3.30463C4.62484 3.00017 4.07188 2.53164 3.654 1.95312C3.2367 1.3746 2.95505 0.687299 2.82112 0C2.74237 0.00972307 2.67627 0.0729238 2.63948 0.147062C2.60269 0.221201 2.5912 0.306885 2.58373 0.390139C2.54981 0.762046 2.5866 1.14064 2.66535 1.49735C2.46244 1.30228 2.31644 1.04219 2.24344 0.79547C2.18136 0.817347 2.13768 0.879331 2.11871 0.94557C2.09974 1.01181 2.10204 1.08291 2.10664 1.15158C2.12676 1.45421 2.18941 1.75441 2.29517 2.05157C2.10836 1.91058 1.94742 1.73253 1.82269 1.54414C1.76004 1.61099 1.73647 1.71065 1.74164 1.80424C1.74682 1.89843 1.77786 1.98837 1.81177 2.07527C1.91408 2.33718 2.04859 2.58512 2.18079 2.83367C2.03537 2.76682 1.89511 2.68721 1.73187 2.60578C1.7882 3.081 2.06008 3.52218 2.45152 3.78531C2.2946 3.78349 2.13768 3.75067 1.99168 3.68869C2.02847 3.90442 2.15032 4.09766 2.30552 4.2429C2.46072 4.38814 2.64868 4.48963 2.84641 4.59354C2.73202 4.61238 2.61591 4.61663 2.50095 4.6063C2.49463 4.64945 2.51015 4.69381 2.53544 4.72784C2.56073 4.76248 2.59407 4.78861 2.62856 4.81292C2.76651 4.91197 2.91941 4.98733 3.09415 5.04506C2.99758 5.08516 2.89641 5.11433 2.79353 5.13135C2.95447 5.32216 3.20968 5.41879 3.47064 5.38962C3.39994 5.4911 3.29418 5.56463 3.17807 5.59319C3.37407 5.81014 3.67814 5.91102 3.9529 5.85754C3.92243 5.94869 3.84541 6.0204 3.75631 6.03985C3.73677 6.0441 3.71665 6.04653 3.69941 6.05625C3.68217 6.06598 3.6678 6.08664 3.67182 6.10669C3.67469 6.12128 3.68619 6.13222 3.69654 6.14194C3.90289 6.32607 4.17937 6.42087 4.44895 6.39899C4.43688 6.42269 4.42423 6.44579 4.41216 6.46949C4.80188 6.60804 5.20596 6.70223 5.63304 6.75024C5.55486 6.82073 5.47382 6.89122 5.42036 6.95989C5.62499 7.01276 5.86813 6.9526 6.02332 6.89487C6.29635 7.07232 6.56938 7.18899 6.81827 7.37738C6.56019 7.28865 6.27049 7.13855 5.99803 7.02795C5.73018 7.13065 5.49566 7.10148 5.21516 7.04436C5.2416 6.97144 5.2393 6.95139 5.33759 6.84747C5.28241 6.84504 4.65013 6.75632 4.33169 6.76969C4.05866 6.78123 3.78276 6.85415 3.55686 7.01762C3.50915 6.31695 2.91136 5.80285 2.48486 5.88246C0.0224163 6.34187 1.9296 11.0752 0 12.3489C3.16025 12.4923 1.31342 6.14923 3.2982 7.09602Z" fill="white"/>
</svg>
