<svg width="139" height="140" viewBox="0 0 139 140" fill="none" xmlns="http://www.w3.org/2000/svg">
<mask id="mask0_220_661" style="mask-type:alpha" maskUnits="userSpaceOnUse" x="0" y="0" width="139" height="140">
<path d="M0.5 70C0.5 108.387 31.3957 139.5 69.5 139.5C107.604 139.5 138.5 108.387 138.5 70C138.5 31.6128 107.604 0.5 69.5 0.5C31.3957 0.5 0.5 31.6128 0.5 70Z" fill="#C4C4C4" stroke="white"/>
</mask>
<g mask="url(#mask0_220_661)">
<path d="M0.5 70C0.5 108.387 31.3957 139.5 69.5 139.5C107.604 139.5 138.5 108.387 138.5 70C138.5 31.6128 107.604 0.5 69.5 0.5C31.3957 0.5 0.5 31.6128 0.5 70Z" stroke="white"/>
<circle r="94.5" transform="matrix(-0.746829 -0.665016 -0.665016 0.746829 -49.7727 82.7725)" fill="#262626" stroke="white"/>
<circle r="94.5" transform="matrix(-0.746829 -0.665016 -0.665016 0.746829 190.227 82.7725)" fill="#262626" stroke="white"/>
<path d="M0.5 70C0.5 108.387 31.3957 139.5 69.5 139.5C107.604 139.5 138.5 108.387 138.5 70C138.5 31.6128 107.604 0.5 69.5 0.5C31.3957 0.5 0.5 31.6128 0.5 70Z" stroke="white"/>
</g>
</svg>
