<svg width="434" height="379" viewBox="0 0 434 379" fill="none" xmlns="http://www.w3.org/2000/svg">
<path d="M411.32 210.72H21.5603C9.79829 210.72 0.279297 201.201 0.279297 189.439C0.279297 177.678 9.79879 168.158 21.5603 168.158H411.88C423.642 168.158 433.161 177.678 433.161 189.439C433.161 201.201 423.642 210.72 411.321 210.72H411.32Z" fill="white"/>
<path d="M411.32 42.7202H21.5603C9.79829 42.7202 0.279297 33.2007 0.279297 21.4392C0.279297 9.67771 9.79879 0.158203 21.5603 0.158203H411.88C423.642 0.158203 433.161 9.67771 433.161 21.4392C433.161 33.2007 423.642 42.7202 411.321 42.7202H411.32Z" fill="white"/>
<path d="M411.32 378.72H21.5603C9.79829 378.72 0.279297 369.201 0.279297 357.439C0.279297 345.678 9.79879 336.158 21.5603 336.158H411.88C423.642 336.158 433.161 345.678 433.161 357.439C433.161 369.201 423.642 378.72 411.321 378.72H411.32Z" fill="white"/>
</svg>
