<svg width="346" height="346" viewBox="0 0 346 346" fill="none" xmlns="http://www.w3.org/2000/svg">
<path d="M340.119 315.27C343.432 318.559 345.295 323.031 345.295 327.696C345.295 332.364 343.432 336.836 340.119 340.122C336.818 343.399 332.346 345.223 327.693 345.196C323.041 345.223 318.572 343.399 315.267 340.122L172.997 197.672L30.727 340.122C27.4223 343.399 22.9536 345.223 18.301 345.196C13.6487 345.223 9.17603 343.399 5.87503 340.122C2.56253 336.836 0.699219 332.364 0.699219 327.696C0.699219 323.032 2.56253 318.559 5.87503 315.27L148.325 173L5.87503 30.7296C1.43753 26.2882 -0.296875 19.8196 1.32812 13.7566C2.95312 7.69021 7.68752 2.95561 13.7541 1.33061C19.8166 -0.29439 26.2851 1.43999 30.7271 5.87751L172.997 148.327L315.267 5.87751C319.709 1.44001 326.177 -0.29439 332.24 1.33061C338.307 2.95561 343.041 7.69001 344.666 13.7566C346.291 19.8191 344.557 26.2876 340.119 30.7296L197.669 173L340.119 315.27Z" fill="white"/>
</svg>
