<svg width="712" height="187" viewBox="0 0 712 187" fill="none" xmlns="http://www.w3.org/2000/svg">
<path fill-rule="evenodd" clip-rule="evenodd" d="M27.0438 72.0506C27.9607 69.4688 29.5654 66.6573 32.0813 65.3972C23.4305 61.4873 22.263 71.0672 20.8437 82.7135C19.0955 97.058 16.9653 114.538 0 113.808C8.75875 108.33 9.39029 95.9088 10.0066 83.7872C10.711 69.9335 11.3954 56.4712 24.17 54.213C28.3185 53.4793 34.1332 58.2174 34.5973 64.6748C36.7946 63.1682 39.4782 62.4962 42.134 62.3898C44.5489 62.2937 48.8196 62.7696 50.8386 62.9946L50.839 62.9946L50.8392 62.9946C51.4095 63.0582 51.8 63.1017 51.9183 63.1066C51.0848 63.9415 50.9949 64.189 50.8152 64.684C50.7887 64.7569 50.7604 64.835 50.7274 64.9212C53.4558 65.4476 55.7369 65.7165 58.3424 64.77C59.4088 65.1801 60.5024 65.6492 61.5922 66.1167L61.5922 66.1168C63.2106 66.811 64.8206 67.5016 66.3208 67.9903C64.908 66.9771 63.4152 66.189 61.8892 65.3833L61.8891 65.3832C60.8001 64.8083 59.6943 64.2244 58.5884 63.5435C57.0788 64.0755 54.7138 64.6299 52.7234 64.1427C53.1907 63.5739 53.8749 62.9915 54.5607 62.4077L54.5607 62.4077L54.5608 62.4076C54.638 62.3419 54.7152 62.2762 54.7921 62.2105C50.6379 61.7681 46.7075 60.9 42.9167 59.6231C42.9754 59.5139 43.0355 59.4061 43.0956 59.2983C43.1557 59.1905 43.2159 59.0827 43.2746 58.9734C40.6524 59.1751 37.9631 58.3014 35.9559 56.6044C35.8553 56.5148 35.7434 56.414 35.7155 56.2796C35.6763 56.0948 35.8161 55.9043 35.9838 55.8147C36.1184 55.7428 36.271 55.7142 36.4242 55.6855L36.4242 55.6855C36.462 55.6784 36.4998 55.6713 36.5374 55.6635C37.404 55.4843 38.1532 54.8234 38.4495 53.9834C35.777 54.4762 32.8193 53.5465 30.9128 51.5471C32.0422 51.2839 33.0709 50.6063 33.7586 49.671C31.2203 49.9398 28.7379 49.0493 27.1724 47.2907C28.1732 47.1339 29.1572 46.8651 30.0965 46.4955C28.3968 45.9634 26.9096 45.269 25.5678 44.3561C25.2323 44.1321 24.908 43.8912 24.662 43.572C24.416 43.2584 24.2651 42.8496 24.3266 42.4519C25.4448 42.5471 26.5742 42.5079 27.6868 42.3343C25.7635 41.3766 23.9352 40.4413 22.4256 39.1028C20.916 37.7643 19.7308 35.9833 19.3729 33.9951C20.793 34.5664 22.3194 34.8688 23.8457 34.8856C20.0383 32.4606 17.3937 28.3946 16.8458 24.015C17.4773 24.3135 18.0734 24.6093 18.6514 24.8961L18.6517 24.8962L18.6517 24.8963L18.6518 24.8963C19.5269 25.3306 20.3605 25.7442 21.2124 26.1152L20.9727 25.6887C19.7652 23.5405 18.5564 21.3898 17.6229 19.1258C17.2931 18.3249 16.9911 17.496 16.9408 16.6279C16.8905 15.7655 17.1197 14.847 17.7292 14.2309C18.9424 15.9671 20.5079 17.608 22.325 18.9073C21.2962 16.1687 20.6868 13.402 20.4911 10.613C20.4464 9.98012 20.424 9.32487 20.6085 8.71442C20.793 8.10396 21.2179 7.53271 21.8218 7.33109C22.5318 9.6049 23.952 12.0019 25.9256 13.7997C25.1596 10.5122 24.8018 7.02305 25.1317 3.59554C25.2044 2.82827 25.3162 2.03859 25.674 1.35533C26.0318 0.672069 26.6748 0.0896082 27.4408 0C28.7435 6.33418 31.4831 12.6684 35.5422 18.0001C39.6068 23.3318 44.9854 27.6497 51.0629 30.4556C51.3033 29.4531 50.8001 28.5906 50.1236 27.9074C56.8943 28.7811 63.1898 32.1134 67.7521 37.0754C68.574 35.6305 69.7257 34.4768 71.1067 33.7599C70.3631 39.282 69.9717 44.989 70.7992 50.5951C71.5453 55.6497 71.8095 56.0695 74.1206 59.7403L74.1208 59.7406C74.3728 60.141 74.6493 60.58 74.9533 61.068C72.7728 51.0879 72.7896 44.0873 78.9733 34.8688C80.2983 32.8862 81.8526 31.0213 83.7815 29.6155C85.7104 28.2098 90.1329 26.1544 92.5147 26.1656L95.081 22.6261L95.3158 27.2857C95.3158 27.2857 107.091 44.2945 106.995 44.3897C106.364 45.2634 104.446 46.7643 103.367 46.7643C101.55 46.7643 99.6042 45.8122 98.061 44.2665C94.2647 46.3275 90.5132 43.0512 90.5132 40.3405C90.1162 43.4936 90.3287 47.0499 91.458 49.7382C92.4956 52.2075 93.8417 53.927 95.2581 55.7363L95.2581 55.7363C96.1771 56.9102 97.1256 58.1219 98.0387 59.6007C101.063 64.4955 102.327 70.4601 101.544 76.167C100.761 81.8739 97.9436 87.2784 93.6833 91.1204C85.3582 102.837 79.5883 114.704 78.6434 129.025H74.9534C75.5984 117.647 80.2997 97.1989 81.4897 92.0229L81.4898 92.0226L81.4902 92.0208L81.4913 92.0161C81.6412 91.3641 81.735 90.9559 81.7576 90.8404C67.562 93.7806 61.0429 93.0302 49.2122 88.2305C46.2714 94.2175 42.5142 99.0619 38.1811 102.601C41.8097 112.335 43.9231 119.644 46.1596 128.812H40.8481C39.9312 120.265 33.2554 106.471 27.5861 97.6954C29.6204 94.7465 28.6631 90.6732 27.6059 86.1745C26.5448 81.6594 25.383 76.7159 27.0438 72.0506ZM119.582 23.295H140.744L157.152 87.5474H157.459V23.295H159.04H172.487H185.945H186.418H202.813V106.409C202.813 110.089 203.528 112.747 204.96 114.383C206.493 116.019 208.64 116.837 211.4 116.837C214.16 116.837 216.256 116.019 217.687 114.383C219.221 112.747 219.988 110.089 219.988 106.409V23.295H235.872H236.242H244.883H262.824H263.25V24.7552L274.325 62.7052H274.632L286.133 23.295H302.541L282.146 84.9405V130.638H265.278V84.9405L249.633 37.6519H236.242V105.182C236.242 113.872 234.096 120.568 229.802 125.271C225.508 129.871 219.272 132.171 211.094 132.171C202.915 132.171 196.679 129.871 192.385 125.271C188.091 120.568 185.945 113.872 185.945 105.182V37.6519H172.487V130.638H155.159L134.917 52.2776H134.61V130.638H119.582V23.295Z" fill="white"/>
<path d="M7.575 176V162.301L16.6328 176H21.8869V153.694H16.6328V168.038L7.54277 153.694H2.32085V176H7.575ZM49.6397 164.847C49.6397 157.788 43.8053 153.178 37.4874 153.178C31.1373 153.178 25.303 157.788 25.303 164.847C25.303 171.971 31.1373 176.548 37.4874 176.548C43.8053 176.548 49.6397 171.939 49.6397 164.847ZM44.0632 164.847C44.0632 168.941 41.1621 171.745 37.4874 171.745C33.7805 171.745 30.8795 168.941 30.8795 164.847C30.8795 160.753 34.0062 157.981 37.4874 157.981C40.9687 157.981 44.0632 160.753 44.0632 164.847ZM68.7393 171.874C66.0639 171.874 64.5812 170.359 64.5812 167.49V153.694H59.1658V167.619C59.1658 173.26 63.5819 176.548 68.7393 176.548C73.929 176.548 78.3451 173.26 78.3451 167.619V153.694H72.9298V167.49C72.9298 170.359 71.447 171.874 68.7393 171.874ZM88.0027 176V162.301L97.0605 176H102.315V153.694H97.0605V168.038L87.9705 153.694H82.7486V176H88.0027ZM112.371 153.694H106.956V176H112.371V153.694ZM127.989 176.548C133.985 176.548 138.272 173.26 139.69 168.006H133.791C132.76 170.327 131.051 171.745 127.892 171.745C124.282 171.745 121.349 168.941 121.349 164.847C121.349 160.753 124.282 157.981 127.892 157.981C131.051 157.981 132.76 159.399 133.791 161.72H139.69C138.272 156.466 133.985 153.178 127.989 153.178C121.51 153.178 115.772 157.788 115.772 164.847C115.772 171.906 121.51 176.548 127.989 176.548ZM165.827 164.847C165.827 157.788 159.993 153.178 153.675 153.178C147.325 153.178 141.49 157.788 141.49 164.847C141.49 171.971 147.325 176.548 153.675 176.548C159.993 176.548 165.827 171.939 165.827 164.847ZM160.251 164.847C160.251 168.941 157.349 171.745 153.675 171.745C149.968 171.745 147.067 168.941 147.067 164.847C147.067 160.753 150.194 157.981 153.675 157.981C157.156 157.981 160.251 160.753 160.251 164.847ZM174.667 167.555H176.408L181.758 176H187.786L181.887 166.652C184.273 165.556 185.755 163.493 185.755 160.657C185.755 156.305 182.274 153.694 177.342 153.694H169.252V176H174.667V167.555ZM174.667 162.913V158.465H177.794C179.212 158.465 180.276 159.238 180.276 160.689C180.276 162.139 179.212 162.913 177.794 162.913H174.667ZM195.754 176V162.301L204.812 176H210.066V153.694H204.812V168.038L195.722 153.694H190.5V176H195.754ZM219.745 168.264C219.745 174.743 222.581 180.384 224.934 183.414H229.608C227.029 179.578 224.902 174.549 224.902 168.264C224.902 161.881 227.029 156.917 229.608 153.082H224.934C222.581 156.112 219.745 161.72 219.745 168.264ZM241.737 162.268L236.322 153.694H230.52L238.997 167.039V176H244.413V167.039L252.955 153.694H247.12L241.737 162.268ZM255.314 176H270.528V171.165H260.729V167.168H269.046V162.301H260.729V158.529H270.528V153.694H255.314V176ZM290.638 153.694H272.425V158.529H278.808V176H284.255V158.529H290.638V153.694ZM296.234 153.082H291.56C294.138 156.917 296.266 161.881 296.266 168.264C296.266 174.549 294.138 179.578 291.56 183.414H296.234C298.587 180.384 301.423 174.743 301.423 168.264C301.423 161.72 298.587 156.112 296.234 153.082Z" fill="white"/>
<path d="M363.2 104H365.696V87.296H365.888L373.344 104H376.288L383.104 87.296H383.296V104H385.792V81.6H382.944L374.912 101.152H374.72L366.048 81.6H363.2V104ZM389.64 104H392.36L394.376 98.688H405.192L407.208 104H409.928L401.32 81.6H398.28L389.64 104ZM395.272 96.32L399.688 84.608H399.88L404.296 96.32H395.272ZM413.763 104H416.355V94.944H421.251L426.211 104H429.219L423.971 94.688C426.499 93.952 428.642 91.52 428.642 88.224C428.642 84.288 425.923 81.6 421.347 81.6H413.763V104ZM416.355 92.64V83.904H421.187C424.355 83.904 425.955 85.856 425.955 88.224C425.955 91.168 423.971 92.64 421.347 92.64H416.355ZM449.792 104L441.28 91.072L449.408 81.6H446.176L436.64 92.896H436.448V81.6H433.856V104H436.448V96.704L439.52 93.12L446.592 104H449.792ZM453.638 104H466.758V101.664H456.23V93.76H464.998V91.424H456.23V83.968H466.406V81.6H453.638V104ZM476.152 104H478.744V83.968H485.592V81.6H469.304V83.968H476.152V104ZM489.763 104H492.355V81.6H489.763V104ZM498.763 104H501.355V86.112H501.547L513.131 104H515.883V81.6H513.323V99.488H513.131L501.419 81.6H498.763V104ZM532.246 104.416C538.294 104.416 543.542 100.32 543.51 92.224H531.51V94.496H540.598C540.438 98.976 536.854 101.984 532.278 101.984C526.998 101.984 523.382 98.112 523.382 92.8C523.382 87.552 526.934 83.616 532.214 83.616C535.99 83.616 538.678 85.536 539.862 88.448H542.742C541.27 84.224 537.366 81.184 532.214 81.184C525.558 81.184 520.694 86.208 520.694 92.8C520.694 99.456 525.59 104.416 532.246 104.416ZM560.622 101.952H562.926V95.104H569.294V92.96H562.926V86.144H560.622V92.96H554.254V95.104H560.622V101.952ZM581.638 104H584.23V95.136H589.67C593.606 95.136 596.517 92.352 596.517 88.32C596.517 84.256 593.734 81.6 589.67 81.6H581.638V104ZM584.23 92.832V83.904H589.446C592.134 83.904 593.862 85.76 593.862 88.32C593.862 90.912 592.134 92.832 589.446 92.832H584.23ZM601.013 104H603.605V94.944H608.501L613.461 104H616.469L611.221 94.688C613.749 93.952 615.892 91.52 615.892 88.224C615.892 84.288 613.173 81.6 608.597 81.6H601.013V104ZM603.605 92.64V83.904H608.437C611.605 83.904 613.205 85.856 613.205 88.224C613.205 91.168 611.221 92.64 608.597 92.64H603.605ZM633.403 101.952H635.707V95.104H642.075V92.96H635.707V86.144H633.403V92.96H627.035V95.104H633.403V101.952ZM651.859 104H654.579L656.595 98.688H667.411L669.427 104H672.147L663.539 81.6H660.499L651.859 104ZM657.491 96.32L661.907 84.608H662.099L666.515 96.32H657.491ZM675.981 104H678.573V94.944H683.469L688.429 104H691.437L686.189 94.688C688.717 93.952 690.861 91.52 690.861 88.224C690.861 84.288 688.141 81.6 683.565 81.6H675.981V104ZM678.573 92.64V83.904H683.405C686.573 83.904 688.173 85.856 688.173 88.224C688.173 91.168 686.189 92.64 683.565 92.64H678.573ZM700.683 104H703.275V83.968H710.123V81.6H693.835V83.968H700.683V104Z" fill="white"/>
<line x1="335" y1="20" x2="335" y2="166" stroke="white" stroke-width="2"/>
</svg>
