<svg width="173" height="173" viewBox="0 0 173 173" fill="none" xmlns="http://www.w3.org/2000/svg">
<circle cx="86.6298" cy="86.6298" r="85.6337" fill="#272727"/>
<path d="M60.3718 84.2196C58.237 85.1281 58.3255 86.4587 60.5637 87.1771L67.195 89.3054C69.435 90.0268 72.8245 89.6332 74.7231 88.4313L103.52 70.0099C105.413 68.802 105.616 68.9801 103.972 70.408L81.2069 90.1735C79.5573 91.5969 80.0444 93.345 82.2918 94.05L83.0686 94.2954C85.3159 95.0004 88.9785 96.1843 91.2111 96.9206L98.5658 99.3498C100.8 100.086 103.188 99.2181 103.823 97.3322L115.032 63.9108C115.664 62.0249 114.436 61.2242 112.301 62.1312L60.3718 84.2196Z" stroke="white"/>
<path d="M78.5682 106.1C78.4372 106.419 83.1035 100.619 83.1035 100.619C84.4227 98.984 83.6736 97.0336 81.4447 96.2942L76.3559 94.6042C74.127 93.8648 73.0586 94.7329 73.9812 96.5397C73.9812 96.5397 78.7029 105.772 78.5682 106.1Z" stroke="white"/>
</svg>
